<svg xmlns="http://www.w3.org/2000/svg" viewBox="0 0 1600 900" role="img" aria-label="Retail store, POS, inventory, customer service, and staff">
  <defs><linearGradient id="bg" x1="0" x2="1" y1="0" y2="1"><stop offset="0%" stop-color="#07130e"/><stop offset="100%" stop-color="#12251d"/></linearGradient></defs>
  <rect width="1600" height="900" fill="url(#bg)"/>
  <rect x="100" y="120" width="640" height="640" rx="38" fill="#0f1f18" stroke="#25d366" stroke-opacity=".22"/>
  <rect x="790" y="120" width="710" height="300" rx="38" fill="#102018" stroke="#86efac" stroke-opacity=".18"/>
  <rect x="790" y="460" width="710" height="300" rx="38" fill="#0c1813" stroke="#25d366" stroke-opacity=".16"/>
  <rect x="155" y="175" width="530" height="160" rx="24" fill="#1a2e26"/>
  <rect x="180" y="210" width="110" height="100" rx="16" fill="#25d366" fill-opacity=".4"/>
  <rect x="320" y="210" width="110" height="100" rx="16" fill="#22c55e" fill-opacity=".34"/>
  <rect x="460" y="210" width="110" height="100" rx="16" fill="#86efac" fill-opacity=".24"/>
  <rect x="180" y="390" width="220" height="170" rx="24" fill="#152820"/>
  <rect x="430" y="390" width="220" height="170" rx="24" fill="#11251d"/>
  <rect x="180" y="590" width="470" height="120" rx="24" fill="#0f1f18"/>
  <path d="M220 445h140M220 490h110M220 535h160" stroke="#bbf7d0" stroke-width="10" stroke-linecap="round"/>
  <path d="M472 445h140M472 490h90M472 535h130" stroke="#25d366" stroke-width="10" stroke-linecap="round"/>
  <path d="M830 210h240M830 260h320M830 310h200" stroke="#d1fae5" stroke-width="12" stroke-linecap="round"/>
  <circle cx="1220" cy="260" r="86" fill="#25d366" fill-opacity=".22"/>
  <circle cx="1330" cy="250" r="54" fill="#86efac" fill-opacity=".22"/>
  <circle cx="1220" cy="590" r="100" fill="#25d366" fill-opacity=".18"/>
  <rect x="1100" y="510" width="170" height="160" rx="28" fill="#152820"/>
  <rect x="1290" y="510" width="130" height="160" rx="28" fill="#11251d"/>
  <text x="160" y="250" fill="#d1fae5" font-family="Arial,Helvetica,sans-serif" font-size="34" font-weight="700">Retail store, POS, inventory, and customer service</text>
</svg>
